<?xml version="1.0" encoding="utf-8"?>
<!-- Generator: Adobe Illustrator 24.0.1, SVG Export Plug-In . SVG Version: 6.00 Build 0)  -->
<svg version="1.1" id="Layer_1" xmlns="http://www.w3.org/2000/svg" xmlns:xlink="http://www.w3.org/1999/xlink" x="0px" y="0px"
	 viewBox="0 0 264 350" style="enable-background:new 0 0 264 350;" xml:space="preserve">
<style type="text/css">
	.st0{fill:#03930E;}
	.st1{fill:#E07E07;}
	.st2{fill:#FFCF36;}
</style>
<path class="st0" d="M132.57,335.26l79.19-164.42c0.03-0.06,0.07-0.12,0.11-0.18C222.5,151.5,227.5,136.5,229,116
	c3.89-53.11-43.96-96.86-97-97c-53.11-0.14-97.23,43.36-97.5,96.5c-0.01,2.63,0.08,5.24,0.28,7.82c0.61,7.97,4.32,22.61,4.69,24.06
	c0.02,0.08,0.04,0.15,0.08,0.22c0.55,1.22,5.56,12.37,7.94,16.48c0.02,0.03,0.03,0.06,0.05,0.09l82.4,171.08
	C130.46,336.36,132.04,336.36,132.57,335.26z"/>
<g>
	<path class="st1" d="M93,134c-1.51,3.33-2.71,5.98-4.93,7.5c-3.49,2.39-8.58,1.39-11.52-0.12c-4.85-2.5-7.57-7.75-9.56-12.83
		c-0.99-2.52-1.88-5.09-2.66-7.68c-0.75-2.51-1.41-5.09-1.32-7.7c0.09-2.62,1.02-5.3,2.99-7.02c3.99-3.47,11-0.88,12.79-0.22
		c10.87,4.01,17.68,16.63,15.79,23.85C94.34,130.69,93.74,132.36,93,134z"/>
	<g>
		<path class="st2" d="M92.41,133.66c-2.83,4.77-5.62,9.11-12,7.7c-4.45-0.98-7.51-4.16-9.71-8.03c-3.35-5.9-9.76-19.96-4.03-25.6
			c5.48-5.39,16.04,0.83,20.22,5.17c5.53,5.74,8.16,12.9,4.97,20.44c-0.66,1.55,1.62,2.9,2.29,1.34c4.04-9.53,0.41-18.86-7.36-25.5
			c-5.69-4.87-18.6-10.31-23.63-1.74c-2.79,4.76-1.28,10.49,0.29,15.37c1.89,5.87,4.13,12.5,8.64,16.93
			c3.21,3.15,7.91,5.02,12.44,4.38c5.53-0.79,7.53-5.12,9.13-9.92C93.9,133.44,92.8,133.01,92.41,133.66z"/>
	</g>
</g>
<g>
	<path class="st1" d="M108,118c-3.1-0.66-1.8-10.75-7.87-21.68c0,0,0,0,0,0c-0.02-0.04-3.6-7.07-2.72-19.01
		c0.09-1.21,0.25-2.47,0.95-3.45c1.31-1.84,3.96-2.04,6.2-1.74c7.3,0.97,13.81,5.26,18.98,10.5c1.83,1.85,3.56,3.89,4.5,6.32
		c1.01,2.62,1.02,5.52,0.76,8.32c-0.53,5.54-2.14,10.97-4.69,15.91c-1.96,3.78-5.59,7.73-9.71,6.7c-0.47-0.12-1.64,0.52-2.56-0.04
		c-0.4-0.24-0.49-0.5-0.82-0.83C110.01,118.02,108.62,118.13,108,118z"/>
	<g>
		<path class="st2" d="M108.43,117.27c-2.21-1.4-2.26-8.54-2.8-10.76c-0.95-3.93-2.57-7.37-4.2-11.03
			c-0.97-2.17-1.56-4.54-1.99-6.87c-0.46-2.53-0.65-5.12-0.65-7.69c0-2.83-0.08-3.41,2.26-5.52c2.46-2.22,3.16-2.05,6.21-1.28
			c5.37,1.35,10.19,4.63,14.15,8.4c5.66,5.37,6.82,10.95,5.41,18.5c-0.92,4.91-3.12,14.02-8.09,16.43c-4.4,2.14-6.67-0.6-10.73-1.01
			c-1.74-0.18-2.17,2.84-0.42,3.08c1.5,0.21,2.43,1.52,3.8,1.89c1.26,0.34,1.71,0.11,3,0.06c2.4-0.09,4.11-0.17,6.17-1.67
			c5.52-4.02,8.04-12.49,9.16-18.86c1.21-6.89,0.69-12.82-4.09-18.18c-4.81-5.39-11.29-9.89-18.36-11.58
			c-4.82-1.16-9.96-0.87-11.2,4.72c-1.25,5.65-0.19,12.94,1.64,18.41c1.64,4.91,4.22,9.32,5.54,14.4c0.7,2.71,0.92,9.38,4.55,10.1
			C108.7,119,109.26,117.8,108.43,117.27z"/>
	</g>
</g>
<g>
	<path class="st1" d="M146.34,113.45c-3.26-5.05-4.48-11.12-5.5-17.04c-1.02-5.93-1.9-11.99-1.01-17.95
		c0.89-5.95,3.81-11.87,8.91-15.05c0.74-0.46,1.56-0.88,2.44-0.87c0.7,0.01,1.36,0.28,2.01,0.55c2.52,1.06,5.04,2.12,7.57,3.18
		c2.81,1.18,5.77,2.49,7.47,5.01c2.48,3.68,1.46,8.6,0.25,12.87c-2.61,9.23-5.71,18.36-9.82,27.03c-0.98,2.07-2.2,4.28-4.35,5.07
		c-3.56,1.31-7.02-1.97-9.4-4.91"/>
	<g>
		<path class="st2" d="M146.53,113.4c-2.72-9.03-5.15-18.27-5.55-27.76c-0.22-5.14,0.42-10.46,2.99-15
			c1.21-2.13,3.19-4.91,5.49-5.99c2.52-1.18,4.81,0.42,7.13,1.39c5.43,2.26,12,4.33,11.71,11.48c-0.19,4.72-2.11,9.57-3.54,14.03
			c-1.54,4.79-3.26,9.53-5.24,14.17c-0.84,1.98-1.65,4.97-3.11,6.6c-1.44,1.61-5.73,2.04-7.48,0.97c-1.12-0.68-2.27-1.86-3.23-2.74
			c-0.92-0.85-2.55,0.26-1.8,1.39c2.35,3.56,6.45,7.52,11.13,5.6c5.34-2.2,7.36-10.99,9.22-15.88c2.65-6.96,5.62-14.49,6.64-21.9
			c0.78-5.66-0.88-10.17-5.98-13.03c-3.01-1.69-6.36-2.84-9.52-4.19c-2-0.85-3.71-1.73-5.88-1.1c-5.02,1.47-8.55,7.66-10.07,12.23
			c-2.28,6.88-1.53,14.34-0.34,21.36c1.11,6.55,2.19,13.69,7.09,18.57C146.34,113.71,146.58,113.58,146.53,113.4L146.53,113.4z"/>
	</g>
</g>
<g>
	<path class="st1" d="M166.92,120.47c0.16-1.36,1.41-2.29,2.55-3.04c2.6-1.73,5.2-3.46,7.81-5.18c1.81-1.2,3.64-2.41,5.67-3.19
		c3.69-1.41,7.76-1.28,11.71-1.13c1.51,0.06,3.11,0.15,4.32,1.05c1.58,1.18,1.98,3.37,2.01,5.34c0.14,9.07-4.98,17.5-11.5,23.81
		c-2.69,2.61-5.74,5-9.32,6.12c-3.58,1.12-7.79,0.76-10.65-1.67c-4-3.4-4.17-9.46-3.54-14.66c0.49-4.01,0.94-5,2-8.9"/>
	<g>
		<path class="st2" d="M167.05,120.54c1.77-3.3,7.56-5.48,10.71-7.48c4.36-2.76,8.25-4.12,13.5-4.07c2.49,0.02,6.94,0.74,8.22,3.28
			c1.01,2-0.03,5.99-0.51,7.96c-0.93,3.77-2.73,7.27-4.96,10.43c-4.33,6.15-14.1,16.53-22.47,11.23
			c-7.05-4.47-3.48-16.04-2.01-22.46c0.45-1.99-2.42-2.78-3.05-0.84c-2.71,8.27-5.61,22.39,4.56,26.92
			c10.67,4.75,21.32-6.67,26.34-14.75c3.65-5.87,9.91-22.04-1.02-23.94c-5.49-0.96-12.02,0.02-16.82,2.82
			c-4.04,2.36-11.47,5.87-12.75,10.8C166.75,120.58,166.97,120.68,167.05,120.54L167.05,120.54z"/>
	</g>
</g>
<g>
	<path class="st1" d="M127,135c-2.24-0.46-6.69-1.32-9,1c-1.34,1.35-2.49,4.29-3.17,6.04c-0.55,1.41-0.83,2.38-1.78,3.35
		c-0.93,0.95-2.27,1.37-3.55,1.72c-8.12,2.2-17.56,3.5-22.32,10.44c-4.19,6.1-2.52,15.44,3.53,19.71c4.71,3.33,10.98,3.5,16.67,2.53
		c5.69-0.97,11.2-2.94,16.94-3.47c7.99-0.74,15.92,1.35,23.86,2.47c7.94,1.13,16.57,1.15,23.32-3.18
		c6.75-4.33,10.27-14.35,5.38-20.7c-2.26-2.93-6.13-4.08-14.33-6.07c-10.16-2.45-10.27-0.67-15.71-2.61
		C137.3,142.82,136.74,137.01,127,135z"/>
	<g>
		<path class="st2" d="M127.23,134.18c-2.77-0.75-5.9-1.55-8.62-0.19c-3.05,1.52-3.72,4.9-5.22,7.66c-2.14,3.95-4.62,4.01-8.47,4.95
			c-1.87,0.46-3.74,0.91-5.58,1.47c-3.78,1.14-7.6,2.65-10.62,5.26c-5.39,4.68-6.95,12.2-4.19,18.74
			c3.32,7.88,11.72,10.46,19.69,9.79c4.67-0.4,9.16-1.79,13.71-2.82c6.71-1.52,12.97-1.4,19.73-0.35c9.6,1.48,19.7,4.01,29.25,0.83
			c6.83-2.27,12.37-7.62,13.6-14.9c0.99-5.87-1.39-11.52-6.79-14.17c-7.18-3.52-15.16-4.01-22.89-5.09
			c-9.15-1.29-14.41-10.01-23.33-12.16c-2.37-0.57-3.39,3.1-1.01,3.66c6.55,1.56,10.21,6.42,15.9,9.46
			c3.86,2.05,7.47,2.62,11.71,2.97c5.98,0.5,14.35,1.61,19.51,4.96c6.75,4.38,3.71,14.22-1.26,18.69
			c-13.17,11.87-34.77-0.16-50.2,2.05c-8.27,1.18-16.91,5.25-25.36,3.13c-8.98-2.26-13.64-13.06-7.42-20.57
			c5.6-6.77,14.62-6.12,22-9.36c2.59-1.14,3.58-2.52,4.65-5.07c1.22-2.91,1.49-4.97,4.43-6.4c2.38-1.16,3.96-1.14,6.53-0.82
			C127.97,135.98,128.13,134.42,127.23,134.18z"/>
	</g>
</g>
</svg>
